PathFileType	4	(X/Y/Z)	D:\TRACE\v60_Jaco2_6-2-23\BothDRS_Motion2_3-v60.trc
DataRate	CameraRate	NumFrames	NumMarkers	Units	OrigDataRate	OrigDataStartFrame	OrigNumFrames
100.00	100.00	      13	9	mm	100.00	2813	      7500
Frame#	Time	front left toe			Front right toe			aft left toe			aft right toe			Arm			FL body			FR body			AL Body			AR Body			
		X1	Y1	Z1	X2	Y2	Z2	X3	Y3	Z3	X4	Y4	Z4	X5	Y5	Z5	X6	Y6	Z6	X7	Y7	Z7	X8	Y8	Z8	X9	Y9	Z9	

2813	28.120	-330.60986	-5.15379	-265.83209	95.38257	17.89808	-235.38678	-214.46495	65.26301	407.64316	57.99580	43.68870	349.48416	-136.37447	1058.42053	-761.94312	-210.57011	541.00098	-400.47806	-50.17678	548.25177	-404.38095	-190.45844	614.05914	542.91522	-34.30545	615.71655	540.13123	
2814	28.130	-329.45880	-4.80815	-265.10510	92.63594	30.36495	-236.64798	-216.19984	77.08401	405.80676	58.54963	43.38958	349.73724	-136.18504	1057.98425	-763.21777	-209.65953	540.81512	-400.86633	-50.12699	548.49792	-404.98157	-192.57411	615.27289	542.06848	-36.37121	616.82623	539.61060	
2815	28.140	-328.78989	-4.71796	-265.38406	91.75969	42.94067	-238.24760	-222.71352	90.01774	402.20282	59.72306	43.18446	350.07623	-135.12303	1058.61816	-764.20544	-210.16341	541.30157	-401.77942	-50.21597	548.64618	-405.33969	-194.68309	615.84412	541.13007	-38.47275	617.66016	538.99902	
2816	28.150	-327.51703	-4.59923	-265.27780	91.00311	56.35656	-240.56395	-231.08733	101.23984	398.57968	60.98513	43.07235	350.05450	-134.56248	1058.84094	-764.97064	-210.59248	541.54395	-402.65906	-51.04389	548.83826	-405.66187	-195.89552	616.31476	540.45618	-39.42153	617.81494	538.50916	
2817	28.160	-326.70755	-4.38608	-265.20364	89.30981	69.48333	-243.29471	-242.79532	115.30472	393.36859	61.40928	42.73990	349.96494	-134.40349	1059.13391	-765.21130	-210.90158	541.67206	-403.22754	-51.47147	549.06219	-406.33435	-197.26826	616.34686	539.89648	-40.51927	617.84308	538.31989	
2818	28.170	-325.76862	-4.25117	-265.18112	87.21010	82.08067	-246.12325	-253.38316	126.59193	388.35922	62.73396	42.42599	350.37592	-133.96548	1059.63928	-765.22961	-211.19885	541.87604	-403.68372	-51.92834	549.16705	-406.84222	-198.26709	616.14948	539.34552	-41.54948	617.48480	537.71771	
2819	28.180	-324.93106	-3.88368	-264.95239	84.33112	94.06652	-248.87151	-262.39285	137.72121	383.32257	63.62265	41.70099	350.23035	-134.15247	1060.58972	-765.13226	-211.59200	542.27936	-404.19962	-52.26917	549.39856	-407.07889	-198.76819	615.88617	539.06915	-42.22248	616.90228	537.48425	
2820	28.190	-323.81198	-3.62748	-264.77615	80.49314	104.98902	-251.67500	-272.44470	149.96700	378.32114	64.69673	41.26109	350.47427	-134.17104	1061.61560	-764.80060	-212.14183	543.33405	-404.43344	-52.63235	549.95746	-407.27948	-199.59529	615.60187	538.69318	-42.64748	616.24200	537.70557	
2821	28.200	-322.73300	-3.27253	-264.65012	75.94724	114.79705	-254.91014	-280.60104	160.80728	373.82922	66.22799	40.83840	350.72894	-133.58296	1062.82654	-764.03644	-212.48506	544.20306	-404.64908	-53.04336	550.50195	-407.35025	-200.14711	615.51740	538.58569	-43.57506	615.99188	537.15741	
2822	28.210	-322.05698	-2.93823	-264.46643	70.89143	122.95705	-257.64706	-286.47110	169.55925	369.86688	66.68633	40.37016	350.61490	-134.01918	1063.65747	-764.07703	-212.67178	544.81012	-404.77600	-53.37587	550.76898	-407.38763	-200.47635	615.13684	538.42316	-44.08070	615.30225	537.01208	
2823	28.220	-320.94016	-2.46606	-264.32190	66.18495	127.40261	-259.82425	-293.38892	174.88426	367.85541	68.24293	40.13126	351.17740	-132.88936	1064.70190	-763.32764	-213.78181	545.70557	-405.00537	-53.56431	550.87823	-407.26401	-200.93321	615.07990	538.53033	-44.49580	614.93237	537.40314	
2824	28.230	-320.06720	-2.20697	-264.09708	61.09238	129.34950	-261.43198	-299.80927	177.70912	366.22662	68.88855	39.35540	351.01440	-131.42317	1065.47363	-763.01001	-214.16609	546.35907	-404.84183	-53.42145	551.10522	-407.27774	-201.56036	615.02295	539.10797	-44.77116	614.24854	537.63379	
2825	28.240	-318.75305	-2.02421	-263.67368	56.25119	128.20287	-261.85397	-306.80478	177.59686	365.37070	69.81627	38.78457	351.38364	-129.57552	1066.21277	-762.14258	-214.00090	546.75256	-404.05658	-54.13941	551.50818	-406.92639	-201.29573	615.19519	539.66193	-44.91267	613.85010	538.02386	
